# xmcd CD database file
#
# Track frame offsets:
#	150
#	32510
#	53050
#	91825
#	118582
#	148327
#	168265
#	194507
#	220675
#	237562
#	262360
#
# Disc length: 3749 seconds
#
# Revision: 0
# Processed by: cddbd v1.5.2PL0 Copyright (c) Steve Scherf et al.
# Submitted via: CDex 1.51
#
DISCID=a20ea30b
DTITLE=The Simon's Rock Jazz Ensemble - Jazz at the Rock II
DYEAR=1992
DGENRE=Jazz
TTITLE0=Skyocean
TTITLE1=Squeeze the Time
TTITLE2=Blues for Socrates
TTITLE3=Mansfield Summer
TTITLE4=Batteries Not Included
TTITLE5=Birthplace
TTITLE6=Music to Swim By
TTITLE7=Tender Meridian
TTITLE8=Furry Logic
TTITLE9=Inter-sections
TTITLE10=Leap for Love
EXTD=YEAR: 1992
EXTT0=
EXTT1=
EXTT2=
EXTT3=
EXTT4=
EXTT5=
EXTT6=
EXTT7=
EXTT8=
EXTT9=
EXTT10=
PLAYORDER=
